<?xml version="1.0" encoding="utf-8"?>
<!-- Generator: Adobe Illustrator 24.0.3, SVG Export Plug-In . SVG Version: 6.00 Build 0)  -->
<svg version="1.1" xmlns="http://www.w3.org/2000/svg" xmlns:xlink="http://www.w3.org/1999/xlink" x="0px" y="0px"
	 viewBox="0 0 96 22" style="enable-background:new 0 0 96 22;" xml:space="preserve">
<style type="text/css">
	.st0{fill:#FFFFFF;}
	.st1{fill:#4D4D4D;}
	.st2{opacity:0.7;clip-path:url(#XMLID_72_);fill:#171617;}
	.st3{opacity:0.7;clip-path:url(#XMLID_73_);fill:#171617;}
	.st4{opacity:0.7;}
	.st5{fill:none;}
	.st6{fill:#272727;}
	.st7{fill:none;stroke:#C30D23;stroke-width:0.7671;stroke-miterlimit:10;}
	.st8{fill:#FFFFFF;stroke:#231815;stroke-miterlimit:10;}
	.st9{fill:#009844;}
	.st10{fill:none;stroke:#E95513;stroke-width:0.5;stroke-miterlimit:10;}
	.st11{fill:none;stroke:#FFFFFF;stroke-miterlimit:10;}
	.st12{opacity:0.5;fill:#030000;}
	.st13{opacity:0.9;}
	.st14{fill:#DBDCDC;}
	.st15{fill:none;stroke:#FFFFFF;stroke-width:2.1306;stroke-linecap:round;stroke-miterlimit:10;}
	.st16{fill:none;stroke:#FFFFFF;stroke-width:0.5;stroke-miterlimit:10;}
	.st17{fill:#C4C4C4;}
	.st18{fill:#E6E7E8;}
	.st19{fill:none;stroke:#595757;stroke-width:0.6473;stroke-linecap:round;stroke-linejoin:round;stroke-miterlimit:10;}
	.st20{fill-rule:evenodd;clip-rule:evenodd;stroke:#595757;stroke-width:0.7939;stroke-miterlimit:10;}
	.st21{fill:none;stroke:#000000;stroke-width:0.6473;stroke-linecap:round;stroke-linejoin:round;stroke-miterlimit:10;}
	.st22{fill:none;stroke:#FFFFFF;stroke-width:0.424;stroke-linecap:round;stroke-linejoin:round;stroke-miterlimit:10;}
	.st23{fill:none;stroke:#231F20;stroke-width:0.424;stroke-linecap:round;stroke-linejoin:round;stroke-miterlimit:10;}
	.st24{fill:none;stroke:#000000;stroke-width:0.7068;stroke-miterlimit:10;}
	.st25{fill:none;stroke:#A5A5A5;stroke-width:0.7068;stroke-miterlimit:10;}
	.st26{fill:none;stroke:#FFFFFF;stroke-width:0.3392;stroke-linecap:round;stroke-linejoin:round;stroke-miterlimit:10;}
	.st27{fill:none;stroke:#FFFFFF;stroke-width:0.1696;stroke-linecap:round;stroke-linejoin:round;stroke-miterlimit:10;}
	.st28{fill:none;stroke:#58595B;stroke-width:0.6473;stroke-miterlimit:10;}
	.st29{clip-path:url(#XMLID_759_);fill:#FFFFFF;}
	.st30{clip-path:url(#XMLID_759_);fill:none;stroke:#58595B;stroke-width:0.6473;stroke-miterlimit:10;}
	.st31{clip-path:url(#XMLID_760_);fill:none;stroke:#FFFFFF;stroke-width:0.6473;stroke-miterlimit:10;}
	.st32{clip-path:url(#XMLID_763_);fill:none;stroke:#FFFFFF;stroke-width:0.6473;stroke-miterlimit:10;}
	.st33{clip-path:url(#XMLID_766_);fill:#FFFFFF;}
	.st34{clip-path:url(#XMLID_766_);fill:none;stroke:#58595B;stroke-width:0.6473;stroke-miterlimit:10;}
	.st35{clip-path:url(#XMLID_767_);fill:none;stroke:#FFFFFF;stroke-width:0.6473;stroke-miterlimit:10;}
	.st36{clip-path:url(#XMLID_768_);fill:#FFFFFF;}
	.st37{clip-path:url(#XMLID_768_);fill:none;stroke:#58595B;stroke-width:0.6473;stroke-miterlimit:10;}
	.st38{clip-path:url(#XMLID_769_);fill:none;stroke:#FFFFFF;stroke-width:0.6473;stroke-miterlimit:10;}
	.st39{clip-path:url(#XMLID_772_);fill:#FFFFFF;}
	.st40{clip-path:url(#XMLID_772_);fill:none;stroke:#58595B;stroke-width:0.6473;stroke-miterlimit:10;}
	.st41{clip-path:url(#XMLID_773_);fill:none;stroke:#FFFFFF;stroke-width:0.6473;stroke-miterlimit:10;}
	.st42{clip-path:url(#XMLID_774_);fill:#FFFFFF;}
	.st43{clip-path:url(#XMLID_774_);fill:none;stroke:#58595B;stroke-width:0.6473;stroke-miterlimit:10;}
	.st44{clip-path:url(#XMLID_775_);fill:none;stroke:#FFFFFF;stroke-width:0.6473;stroke-miterlimit:10;}
	.st45{clip-path:url(#XMLID_776_);fill:#FFFFFF;}
	.st46{clip-path:url(#XMLID_776_);fill:none;stroke:#58595B;stroke-width:0.6473;stroke-miterlimit:10;}
	.st47{clip-path:url(#XMLID_776_);fill:none;stroke:#000000;stroke-width:0.5929;stroke-miterlimit:10;}
	
		.st48{clip-path:url(#XMLID_782_);fill:none;stroke:#231F20;stroke-width:0.6473;stroke-linecap:round;stroke-linejoin:round;stroke-miterlimit:10;}
	.st49{fill:none;stroke:#FFFFFF;stroke-width:2.131;stroke-linecap:round;stroke-linejoin:round;stroke-miterlimit:10;}
	.st50{fill:#FFFFFF;stroke:#FFFFFF;stroke-width:2;stroke-miterlimit:10;}
	.st51{fill:none;stroke:#9E9E9F;stroke-linecap:round;stroke-linejoin:round;stroke-miterlimit:10;}
	.st52{fill:#C8C9CA;}
	.st53{fill:#717071;}
	.st54{fill:#3E3A39;}
	.st55{fill:#EEEEEF;}
	.st56{fill:none;stroke:#EEEEEF;stroke-miterlimit:10;}
	.st57{fill:none;stroke:#888888;stroke-width:2;stroke-miterlimit:10;}
	.st58{fill:#888888;}
	.st59{fill:none;stroke:#9E9E9F;stroke-miterlimit:10;}
	.st60{fill:none;stroke:#9E9E9F;stroke-width:2;stroke-miterlimit:10;}
	.st61{fill:none;stroke:#FFFFFF;stroke-linecap:round;stroke-linejoin:round;stroke-miterlimit:10;}
	.st62{fill:#DADF00;}
	.st63{fill:#C30D23;}
	.st64{opacity:0.45;}
	.st65{opacity:0.5;fill:#070102;stroke:#717071;stroke-miterlimit:10;}
	.st66{fill:#009FE8;}
	.st67{fill:#030000;}
	.st68{fill:#595757;}
	.st69{clip-path:url(#XMLID_907_);fill:#FFFFFF;}
	.st70{clip-path:url(#XMLID_907_);fill:none;stroke:#58595B;stroke-width:0.6473;stroke-miterlimit:10;}
	.st71{clip-path:url(#XMLID_911_);fill:none;stroke:#FFFFFF;stroke-width:0.6473;stroke-miterlimit:10;}
	.st72{clip-path:url(#XMLID_912_);fill:none;stroke:#FFFFFF;stroke-width:0.6473;stroke-miterlimit:10;}
	.st73{clip-path:url(#XMLID_914_);fill:#FFFFFF;}
	.st74{clip-path:url(#XMLID_914_);fill:none;stroke:#58595B;stroke-width:0.6473;stroke-miterlimit:10;}
	.st75{clip-path:url(#XMLID_916_);fill:none;stroke:#FFFFFF;stroke-width:0.6473;stroke-miterlimit:10;}
	.st76{clip-path:url(#XMLID_917_);fill:#FFFFFF;}
	.st77{clip-path:url(#XMLID_917_);fill:none;stroke:#58595B;stroke-width:0.6473;stroke-miterlimit:10;}
	.st78{clip-path:url(#XMLID_930_);fill:none;stroke:#FFFFFF;stroke-width:0.6473;stroke-miterlimit:10;}
	.st79{clip-path:url(#XMLID_932_);fill:#FFFFFF;}
	.st80{clip-path:url(#XMLID_932_);fill:none;stroke:#58595B;stroke-width:0.6473;stroke-miterlimit:10;}
	.st81{clip-path:url(#XMLID_1007_);fill:none;stroke:#FFFFFF;stroke-width:0.6473;stroke-miterlimit:10;}
	.st82{clip-path:url(#XMLID_1041_);fill:#FFFFFF;}
	.st83{clip-path:url(#XMLID_1041_);fill:none;stroke:#58595B;stroke-width:0.6473;stroke-miterlimit:10;}
	.st84{clip-path:url(#XMLID_1045_);fill:none;stroke:#FFFFFF;stroke-width:0.6473;stroke-miterlimit:10;}
	.st85{clip-path:url(#XMLID_1050_);fill:#FFFFFF;}
	.st86{clip-path:url(#XMLID_1050_);fill:none;stroke:#58595B;stroke-width:0.6473;stroke-miterlimit:10;}
	.st87{clip-path:url(#XMLID_1050_);fill:none;stroke:#000000;stroke-width:0.5929;stroke-miterlimit:10;}
	
		.st88{clip-path:url(#XMLID_1225_);fill:none;stroke:#231F20;stroke-width:0.6473;stroke-linecap:round;stroke-linejoin:round;stroke-miterlimit:10;}
	.st89{fill:none;stroke:#FFFFFF;stroke-width:2;stroke-miterlimit:10;}
	.st90{fill:none;stroke:#FFFFFF;stroke-width:2.1453;stroke-miterlimit:10;}
	.st91{fill:#FFFFFF;stroke:#FFFFFF;stroke-width:1.193;stroke-miterlimit:10;}
	.st92{fill:none;stroke:#FFFFFF;stroke-width:2.3861;stroke-miterlimit:10;}
	.st93{fill:none;stroke:#FFFFFF;stroke-width:1.7982;stroke-miterlimit:10;}
	.st94{fill:#FFFFFF;stroke:#FFFFFF;stroke-miterlimit:10;}
</style>
<g id="背景">
</g>
<g id="效果">
</g>
<g id="圖面">
	<g id="LOGO_1_">
		<path id="XMLID_142_" class="st0" d="M23.71,12.76V0.06h-2.87v13.08c0,0.85,0.1,1.53,0.29,2.03c0.12,0.32,0.36,0.65,0.72,0.98
			c0.81,0.77,1.92,1.16,3.31,1.16h7.7v-2.57h-7.7C24.18,14.74,23.71,14.09,23.71,12.76z"/>
		<rect id="XMLID_134_" x="37.61" y="5.69" class="st0" width="2.48" height="11.56"/>
		<path id="XMLID_132_" class="st0" d="M52.34,12.99c-0.25,0.81-0.43,1.3-0.54,1.47c-0.16,0.22-0.46,0.33-0.88,0.33
			c-0.42,0-0.75-0.07-0.95-0.22c-0.18-0.13-0.33-0.4-0.46-0.81l-2.41-7.98L47.1,5.76h-2.46l2.61,8.82c0.51,1.72,1.42,2.59,2.71,2.59
			h1.46c1.08,0,1.9-0.45,2.43-1.33c0.18-0.29,0.44-1.02,0.79-2.23l2.33-7.84h-2.46L52.34,12.99z"/>
		<rect id="XMLID_123_" x="61.55" y="5.69" class="st0" width="2.48" height="11.56"/>
		<path id="XMLID_122_" class="st0" d="M76.28,5.78h-4.72c-0.74,0-1.41,0.28-1.97,0.82c-0.55,0.53-0.82,1.25-0.82,2.14v8.48h2.48
			V9.08c0-0.37,0.07-0.64,0.2-0.79c0.17-0.2,0.57-0.3,1.18-0.3h3.29c0.41,0,0.71,0.09,0.87,0.26C76.93,8.4,77,8.68,77,9.08v8.14
			h2.48V8.65c0-0.82-0.28-1.5-0.84-2.04C78.06,6.06,77.26,5.78,76.28,5.78z"/>
		<path id="XMLID_116_" class="st0" d="M94.59,6.51c-0.54-0.53-1.23-0.8-2.06-0.8h-5.88c-0.83,0-1.53,0.28-2.06,0.82
			c-0.52,0.51-0.78,1.23-0.78,2.12v4.3c0,0.88,0.26,1.58,0.76,2.1c0.51,0.52,1.28,0.79,2.31,0.79h6.04l0.01,1.95
			c0,0.37-0.08,0.63-0.21,0.78c-0.14,0.16-0.51,0.21-0.91,0.28l-5.26,0.72l-0.01,2.37l6.03-0.88c1.22-0.16,1.96-0.53,2.44-1.23
			c0.26-0.38,0.39-1,0.39-1.86V8.26C95.4,7.63,95.12,7.04,94.59,6.51z M87.25,13.64c-0.32,0-0.58-0.09-0.76-0.28
			c-0.14-0.16-0.21-0.47-0.21-0.94V9.04c0-0.4,0.1-0.7,0.3-0.89c0.16-0.15,0.44-0.22,0.85-0.22h4.44c0.71,0,1.05,0.34,1.05,1.05
			v3.78c0,0.23-0.08,0.44-0.25,0.62c-0.16,0.18-0.51,0.27-1.05,0.27H87.25z"/>
		<path id="XMLID_100_" class="st0" d="M40.19,2.42c0,0.74-0.6,1.35-1.35,1.35c-0.74,0-1.35-0.6-1.35-1.35
			c0-0.74,0.6-1.35,1.35-1.35C39.59,1.07,40.19,1.68,40.19,2.42z"/>
		<path id="XMLID_98_" class="st0" d="M64.14,2.42c0,0.74-0.6,1.35-1.35,1.35c-0.74,0-1.35-0.6-1.35-1.35c0-0.74,0.6-1.35,1.35-1.35
			C63.53,1.07,64.14,1.68,64.14,2.42z"/>
		<path id="XMLID_5_" class="st0" d="M15.54,6.95V4.87h-2.88l1.02-4.02l-2.55,0.01l-0.99,4.01H7.55l1.02-4.02L6.02,0.85L5.03,4.87
			H1.02v2.08h3.52l-0.75,3.08H0.6v2.08h2.68l-1.06,4.43h2.46l1.07-4.43H8.4l-1.06,4.43H9.8l1.08-4.43h4.33v-2.08h-3.82l0.77-3.08
			H15.54z M9.66,6.95L8.9,10.03H6.27l0.77-3.08H9.66z"/>
	</g>
</g>
<g id="圖層_4">
</g>
</svg>
